<mxfile host="app.diagrams.net" agent="Mozilla/5.0 (Windows NT 10.0; Win64; x64) AppleWebKit/537.36 (KHTML, like Gecko) Chrome/127.0.0.0 Safari/537.36" version="24.7.7">
  <diagram id="C5RBs43oDa-KdzZeNtuy" name="Page-1">
    <mxGraphModel dx="175" dy="97" grid="1" gridSize="10" guides="1" tooltips="1" connect="1" arrows="1" fold="1" page="1" pageScale="1" pageWidth="827" pageHeight="1169" math="0" shadow="0">
      <root>
        <mxCell id="WIyWlLk6GJQsqaUBKTNV-0" />
        <mxCell id="WIyWlLk6GJQsqaUBKTNV-1" parent="WIyWlLk6GJQsqaUBKTNV-0" />
        <mxCell id="WIyWlLk6GJQsqaUBKTNV-2" value="" style="rounded=0;html=1;jettySize=auto;orthogonalLoop=1;fontSize=11;endArrow=block;endFill=0;endSize=8;strokeWidth=1;shadow=0;labelBackgroundColor=none;edgeStyle=orthogonalEdgeStyle;entryX=0.5;entryY=0;entryDx=0;entryDy=0;exitX=0.5;exitY=1;exitDx=0;exitDy=0;exitPerimeter=0;" parent="WIyWlLk6GJQsqaUBKTNV-1" source="2YxlZd93tx3mGEonH2gu-40" target="2YxlZd93tx3mGEonH2gu-3" edge="1">
          <mxGeometry relative="1" as="geometry">
            <mxPoint x="420" y="140" as="sourcePoint" />
            <mxPoint x="420" y="190" as="targetPoint" />
          </mxGeometry>
        </mxCell>
        <mxCell id="2YxlZd93tx3mGEonH2gu-38" style="edgeStyle=orthogonalEdgeStyle;rounded=0;orthogonalLoop=1;jettySize=auto;html=1;entryX=0.5;entryY=0;entryDx=0;entryDy=0;fontFamily=Helvetica;fontSize=12;fontColor=default;exitX=0.5;exitY=0;exitDx=0;exitDy=0;endArrow=block;endFill=0;exitPerimeter=0;" edge="1" parent="WIyWlLk6GJQsqaUBKTNV-1" source="2YxlZd93tx3mGEonH2gu-40" target="2YxlZd93tx3mGEonH2gu-22">
          <mxGeometry relative="1" as="geometry">
            <mxPoint x="420" y="100" as="sourcePoint" />
          </mxGeometry>
        </mxCell>
        <mxCell id="2YxlZd93tx3mGEonH2gu-39" style="edgeStyle=orthogonalEdgeStyle;rounded=0;orthogonalLoop=1;jettySize=auto;html=1;entryX=0.5;entryY=0;entryDx=0;entryDy=0;fontFamily=Helvetica;fontSize=12;fontColor=default;exitX=0.5;exitY=0;exitDx=0;exitDy=0;endArrow=block;endFill=0;exitPerimeter=0;" edge="1" parent="WIyWlLk6GJQsqaUBKTNV-1" source="2YxlZd93tx3mGEonH2gu-40" target="2YxlZd93tx3mGEonH2gu-31">
          <mxGeometry relative="1" as="geometry">
            <mxPoint x="420" y="100" as="sourcePoint" />
          </mxGeometry>
        </mxCell>
        <mxCell id="WIyWlLk6GJQsqaUBKTNV-4" value="" style="rounded=0;html=1;jettySize=auto;orthogonalLoop=1;fontSize=11;endArrow=block;endFill=0;endSize=8;strokeWidth=1;shadow=0;labelBackgroundColor=none;edgeStyle=orthogonalEdgeStyle;exitX=0.5;exitY=1;exitDx=0;exitDy=0;entryX=0.5;entryY=0;entryDx=0;entryDy=0;" parent="WIyWlLk6GJQsqaUBKTNV-1" source="2YxlZd93tx3mGEonH2gu-3" target="2YxlZd93tx3mGEonH2gu-7" edge="1">
          <mxGeometry y="20" relative="1" as="geometry">
            <mxPoint as="offset" />
            <mxPoint x="420" y="270" as="sourcePoint" />
            <mxPoint x="420" y="320" as="targetPoint" />
          </mxGeometry>
        </mxCell>
        <mxCell id="2YxlZd93tx3mGEonH2gu-2" value="" style="edgeStyle=orthogonalEdgeStyle;rounded=0;orthogonalLoop=1;jettySize=auto;endArrow=block;endFill=0;html=1;fontStyle=0;labelBackgroundColor=none;exitX=0;exitY=0.5;exitDx=0;exitDy=0;entryX=1;entryY=0.5;entryDx=0;entryDy=0;" edge="1" parent="WIyWlLk6GJQsqaUBKTNV-1" source="2YxlZd93tx3mGEonH2gu-3" target="2YxlZd93tx3mGEonH2gu-5">
          <mxGeometry x="-0.0096" y="9" relative="1" as="geometry">
            <mxPoint x="300" y="229.85" as="targetPoint" />
            <mxPoint x="350" y="229.85" as="sourcePoint" />
            <mxPoint as="offset" />
          </mxGeometry>
        </mxCell>
        <mxCell id="2YxlZd93tx3mGEonH2gu-3" value="파일 대상 선택 클릭" style="rounded=1;whiteSpace=wrap;html=1;shadow=0;strokeColor=default;strokeWidth=1;align=center;verticalAlign=middle;spacingTop=-4;spacing=6;fontFamily=Helvetica;fontSize=12;fontColor=default;fillColor=default;" vertex="1" parent="WIyWlLk6GJQsqaUBKTNV-1">
          <mxGeometry x="360" y="210" width="120" height="40" as="geometry" />
        </mxCell>
        <mxCell id="2YxlZd93tx3mGEonH2gu-5" value="Project Steps" style="rounded=1;whiteSpace=wrap;html=1;shadow=0;strokeColor=default;strokeWidth=1;align=center;verticalAlign=middle;spacingTop=-4;spacing=6;fontFamily=Helvetica;fontSize=12;fontColor=default;fillColor=default;" vertex="1" parent="WIyWlLk6GJQsqaUBKTNV-1">
          <mxGeometry x="180" y="210" width="120" height="40" as="geometry" />
        </mxCell>
        <mxCell id="2YxlZd93tx3mGEonH2gu-8" style="edgeStyle=orthogonalEdgeStyle;rounded=0;orthogonalLoop=1;jettySize=auto;html=1;fontFamily=Helvetica;fontSize=12;fontColor=default;endArrow=block;endFill=0;labelBackgroundColor=none;" edge="1" parent="WIyWlLk6GJQsqaUBKTNV-1" source="2YxlZd93tx3mGEonH2gu-7">
          <mxGeometry relative="1" as="geometry">
            <mxPoint x="420.0000000000001" y="430" as="targetPoint" />
          </mxGeometry>
        </mxCell>
        <mxCell id="2YxlZd93tx3mGEonH2gu-9" value="Yes" style="edgeLabel;html=1;align=center;verticalAlign=middle;resizable=0;points=[];shadow=0;strokeColor=default;strokeWidth=1;spacingTop=-4;spacing=6;fontFamily=Helvetica;fontSize=12;fontColor=default;fillColor=default;" vertex="1" connectable="0" parent="2YxlZd93tx3mGEonH2gu-8">
          <mxGeometry x="-0.2462" y="-2" relative="1" as="geometry">
            <mxPoint x="12" as="offset" />
          </mxGeometry>
        </mxCell>
        <mxCell id="2YxlZd93tx3mGEonH2gu-10" style="edgeStyle=orthogonalEdgeStyle;rounded=0;orthogonalLoop=1;jettySize=auto;html=1;fontFamily=Helvetica;fontSize=12;fontColor=default;" edge="1" parent="WIyWlLk6GJQsqaUBKTNV-1" source="2YxlZd93tx3mGEonH2gu-7">
          <mxGeometry relative="1" as="geometry">
            <mxPoint x="520" y="345" as="targetPoint" />
          </mxGeometry>
        </mxCell>
        <mxCell id="2YxlZd93tx3mGEonH2gu-7" value="드래그 안에&amp;nbsp;&lt;div&gt;오브젝트 존재&lt;/div&gt;" style="rhombus;whiteSpace=wrap;html=1;shadow=0;strokeColor=default;strokeWidth=1;align=center;verticalAlign=middle;spacingTop=-4;spacing=6;fontFamily=Helvetica;fontSize=12;fontColor=default;fillColor=default;" vertex="1" parent="WIyWlLk6GJQsqaUBKTNV-1">
          <mxGeometry x="360" y="310" width="120" height="70" as="geometry" />
        </mxCell>
        <mxCell id="2YxlZd93tx3mGEonH2gu-11" value="검색 영역 선택(step3)" style="rounded=1;whiteSpace=wrap;html=1;shadow=0;strokeColor=default;strokeWidth=1;align=center;verticalAlign=middle;spacingTop=-4;spacing=6;fontFamily=Helvetica;fontSize=12;fontColor=default;fillColor=default;" vertex="1" parent="WIyWlLk6GJQsqaUBKTNV-1">
          <mxGeometry x="180" y="300" width="120" height="40" as="geometry" />
        </mxCell>
        <mxCell id="2YxlZd93tx3mGEonH2gu-12" value="휴먼 검색 요청&lt;div&gt;(step4)&lt;/div&gt;" style="rounded=1;whiteSpace=wrap;html=1;shadow=0;strokeColor=default;strokeWidth=1;align=center;verticalAlign=middle;spacingTop=-4;spacing=6;fontFamily=Helvetica;fontSize=12;fontColor=default;fillColor=default;" vertex="1" parent="WIyWlLk6GJQsqaUBKTNV-1">
          <mxGeometry x="180" y="390" width="120" height="40" as="geometry" />
        </mxCell>
        <mxCell id="2YxlZd93tx3mGEonH2gu-13" value="휴먼 검색 요청 창" style="rounded=1;whiteSpace=wrap;html=1;shadow=0;strokeColor=default;strokeWidth=1;align=center;verticalAlign=middle;spacingTop=-4;spacing=6;fontFamily=Helvetica;fontSize=12;fontColor=default;fillColor=default;" vertex="1" parent="WIyWlLk6GJQsqaUBKTNV-1">
          <mxGeometry x="180" y="470" width="120" height="40" as="geometry" />
        </mxCell>
        <mxCell id="2YxlZd93tx3mGEonH2gu-14" value="후보 대상 선택&lt;br&gt;(step5)" style="rounded=1;whiteSpace=wrap;html=1;shadow=0;strokeColor=default;strokeWidth=1;align=center;verticalAlign=middle;spacingTop=-4;spacing=6;fontFamily=Helvetica;fontSize=12;fontColor=default;fillColor=default;" vertex="1" parent="WIyWlLk6GJQsqaUBKTNV-1">
          <mxGeometry x="180" y="545" width="120" height="40" as="geometry" />
        </mxCell>
        <mxCell id="2YxlZd93tx3mGEonH2gu-15" value="동선 구축 완료&lt;div&gt;(step6)&lt;/div&gt;" style="rounded=1;whiteSpace=wrap;html=1;shadow=0;strokeColor=default;strokeWidth=1;align=center;verticalAlign=middle;spacingTop=-4;spacing=6;fontFamily=Helvetica;fontSize=12;fontColor=default;fillColor=default;" vertex="1" parent="WIyWlLk6GJQsqaUBKTNV-1">
          <mxGeometry x="180" y="630" width="120" height="40" as="geometry" />
        </mxCell>
        <mxCell id="2YxlZd93tx3mGEonH2gu-17" value="" style="rounded=1;whiteSpace=wrap;html=1;shadow=0;strokeColor=default;strokeWidth=1;align=center;verticalAlign=middle;spacingTop=-4;spacing=6;fontFamily=Helvetica;fontSize=12;fontColor=default;fillColor=default;" vertex="1" parent="WIyWlLk6GJQsqaUBKTNV-1">
          <mxGeometry x="120" y="20" width="120" height="40" as="geometry" />
        </mxCell>
        <mxCell id="2YxlZd93tx3mGEonH2gu-18" value="" style="rhombus;whiteSpace=wrap;html=1;shadow=0;strokeColor=default;strokeWidth=1;align=center;verticalAlign=middle;spacingTop=-4;spacing=6;fontFamily=Helvetica;fontSize=12;fontColor=default;fillColor=default;" vertex="1" parent="WIyWlLk6GJQsqaUBKTNV-1">
          <mxGeometry x="270" y="10" width="120" height="70" as="geometry" />
        </mxCell>
        <mxCell id="2YxlZd93tx3mGEonH2gu-33" style="edgeStyle=orthogonalEdgeStyle;rounded=0;orthogonalLoop=1;jettySize=auto;html=1;fontFamily=Helvetica;fontSize=12;fontColor=default;labelBackgroundColor=none;endArrow=block;endFill=0;" edge="1" parent="WIyWlLk6GJQsqaUBKTNV-1" source="2YxlZd93tx3mGEonH2gu-22" target="2YxlZd93tx3mGEonH2gu-30">
          <mxGeometry relative="1" as="geometry" />
        </mxCell>
        <mxCell id="2YxlZd93tx3mGEonH2gu-22" value="Zoom +버튼 클릭" style="rounded=1;whiteSpace=wrap;html=1;shadow=0;strokeColor=default;strokeWidth=1;align=center;verticalAlign=middle;spacingTop=-4;spacing=6;fontFamily=Helvetica;fontSize=12;fontColor=default;fillColor=default;" vertex="1" parent="WIyWlLk6GJQsqaUBKTNV-1">
          <mxGeometry x="540" y="120" width="120" height="40" as="geometry" />
        </mxCell>
        <mxCell id="2YxlZd93tx3mGEonH2gu-30" value="ZoomLevel 1증가" style="rounded=0;whiteSpace=wrap;html=1;shadow=0;strokeColor=default;strokeWidth=1;align=center;verticalAlign=middle;spacingTop=-4;spacing=6;fontFamily=Helvetica;fontSize=12;fontColor=default;fillColor=default;" vertex="1" parent="WIyWlLk6GJQsqaUBKTNV-1">
          <mxGeometry x="540" y="210" width="120" height="40" as="geometry" />
        </mxCell>
        <mxCell id="2YxlZd93tx3mGEonH2gu-34" style="edgeStyle=orthogonalEdgeStyle;rounded=0;orthogonalLoop=1;jettySize=auto;html=1;entryX=0.5;entryY=0;entryDx=0;entryDy=0;fontFamily=Helvetica;fontSize=12;fontColor=default;labelBackgroundColor=none;endArrow=block;endFill=0;" edge="1" parent="WIyWlLk6GJQsqaUBKTNV-1" source="2YxlZd93tx3mGEonH2gu-31" target="2YxlZd93tx3mGEonH2gu-32">
          <mxGeometry relative="1" as="geometry" />
        </mxCell>
        <mxCell id="2YxlZd93tx3mGEonH2gu-31" value="Zoom -버튼 클릭" style="rounded=1;whiteSpace=wrap;html=1;shadow=0;strokeColor=default;strokeWidth=1;align=center;verticalAlign=middle;spacingTop=-4;spacing=6;fontFamily=Helvetica;fontSize=12;fontColor=default;fillColor=default;" vertex="1" parent="WIyWlLk6GJQsqaUBKTNV-1">
          <mxGeometry x="700" y="120" width="120" height="40" as="geometry" />
        </mxCell>
        <mxCell id="2YxlZd93tx3mGEonH2gu-32" value="ZoomLevel 1감소" style="rounded=0;whiteSpace=wrap;html=1;shadow=0;strokeColor=default;strokeWidth=1;align=center;verticalAlign=middle;spacingTop=-4;spacing=6;fontFamily=Helvetica;fontSize=12;fontColor=default;fillColor=default;" vertex="1" parent="WIyWlLk6GJQsqaUBKTNV-1">
          <mxGeometry x="700" y="210" width="120" height="40" as="geometry" />
        </mxCell>
        <mxCell id="2YxlZd93tx3mGEonH2gu-40" value="실행" style="strokeWidth=1;html=1;shape=mxgraph.flowchart.terminator;whiteSpace=wrap;shadow=0;strokeColor=default;align=center;verticalAlign=middle;spacingTop=-4;spacing=6;fontFamily=Helvetica;fontSize=12;fontColor=default;fillColor=default;" vertex="1" parent="WIyWlLk6GJQsqaUBKTNV-1">
          <mxGeometry x="360" y="100" width="120" height="50" as="geometry" />
        </mxCell>
        <mxCell id="2YxlZd93tx3mGEonH2gu-42" value="" style="strokeWidth=1;html=1;shape=mxgraph.flowchart.terminator;whiteSpace=wrap;shadow=0;strokeColor=default;align=center;verticalAlign=middle;spacingTop=-4;spacing=6;fontFamily=Helvetica;fontSize=12;fontColor=default;fillColor=default;" vertex="1" parent="WIyWlLk6GJQsqaUBKTNV-1">
          <mxGeometry x="120" y="80" width="120" height="50" as="geometry" />
        </mxCell>
        <mxCell id="2YxlZd93tx3mGEonH2gu-44" style="edgeStyle=orthogonalEdgeStyle;rounded=0;orthogonalLoop=1;jettySize=auto;html=1;fontFamily=Helvetica;fontSize=12;fontColor=default;entryX=0.5;entryY=0;entryDx=0;entryDy=0;exitX=0.5;exitY=1;exitDx=0;exitDy=0;exitPerimeter=0;" edge="1" parent="WIyWlLk6GJQsqaUBKTNV-1" source="2YxlZd93tx3mGEonH2gu-43" target="2YxlZd93tx3mGEonH2gu-45">
          <mxGeometry relative="1" as="geometry">
            <mxPoint x="1200" y="160" as="targetPoint" />
          </mxGeometry>
        </mxCell>
        <mxCell id="2YxlZd93tx3mGEonH2gu-48" style="edgeStyle=orthogonalEdgeStyle;rounded=0;orthogonalLoop=1;jettySize=auto;html=1;entryX=0.5;entryY=0;entryDx=0;entryDy=0;fontFamily=Helvetica;fontSize=12;fontColor=default;exitX=0.5;exitY=1;exitDx=0;exitDy=0;exitPerimeter=0;" edge="1" parent="WIyWlLk6GJQsqaUBKTNV-1" source="2YxlZd93tx3mGEonH2gu-43" target="2YxlZd93tx3mGEonH2gu-47">
          <mxGeometry relative="1" as="geometry">
            <mxPoint x="1200" y="100" as="sourcePoint" />
          </mxGeometry>
        </mxCell>
        <mxCell id="2YxlZd93tx3mGEonH2gu-49" style="edgeStyle=orthogonalEdgeStyle;rounded=0;orthogonalLoop=1;jettySize=auto;html=1;fontFamily=Helvetica;fontSize=12;fontColor=default;exitX=0.5;exitY=1;exitDx=0;exitDy=0;exitPerimeter=0;" edge="1" parent="WIyWlLk6GJQsqaUBKTNV-1" source="2YxlZd93tx3mGEonH2gu-43" target="2YxlZd93tx3mGEonH2gu-46">
          <mxGeometry relative="1" as="geometry" />
        </mxCell>
        <mxCell id="2YxlZd93tx3mGEonH2gu-52" style="edgeStyle=orthogonalEdgeStyle;rounded=0;orthogonalLoop=1;jettySize=auto;html=1;exitX=0.5;exitY=1;exitDx=0;exitDy=0;exitPerimeter=0;entryX=0.5;entryY=0;entryDx=0;entryDy=0;fontFamily=Helvetica;fontSize=12;fontColor=default;" edge="1" parent="WIyWlLk6GJQsqaUBKTNV-1" source="2YxlZd93tx3mGEonH2gu-43" target="2YxlZd93tx3mGEonH2gu-51">
          <mxGeometry relative="1" as="geometry" />
        </mxCell>
        <mxCell id="2YxlZd93tx3mGEonH2gu-60" style="edgeStyle=orthogonalEdgeStyle;rounded=0;orthogonalLoop=1;jettySize=auto;html=1;entryX=0.5;entryY=0;entryDx=0;entryDy=0;fontFamily=Helvetica;fontSize=12;fontColor=default;exitX=0.5;exitY=1;exitDx=0;exitDy=0;exitPerimeter=0;" edge="1" parent="WIyWlLk6GJQsqaUBKTNV-1" source="2YxlZd93tx3mGEonH2gu-43" target="2YxlZd93tx3mGEonH2gu-50">
          <mxGeometry relative="1" as="geometry" />
        </mxCell>
        <mxCell id="2YxlZd93tx3mGEonH2gu-61" style="edgeStyle=orthogonalEdgeStyle;rounded=0;orthogonalLoop=1;jettySize=auto;html=1;fontFamily=Helvetica;fontSize=12;fontColor=default;exitX=0.5;exitY=1;exitDx=0;exitDy=0;exitPerimeter=0;" edge="1" parent="WIyWlLk6GJQsqaUBKTNV-1" source="2YxlZd93tx3mGEonH2gu-43" target="2YxlZd93tx3mGEonH2gu-55">
          <mxGeometry relative="1" as="geometry" />
        </mxCell>
        <mxCell id="2YxlZd93tx3mGEonH2gu-62" style="edgeStyle=orthogonalEdgeStyle;rounded=0;orthogonalLoop=1;jettySize=auto;html=1;fontFamily=Helvetica;fontSize=12;fontColor=default;exitX=0.5;exitY=1;exitDx=0;exitDy=0;exitPerimeter=0;" edge="1" parent="WIyWlLk6GJQsqaUBKTNV-1" source="2YxlZd93tx3mGEonH2gu-43" target="2YxlZd93tx3mGEonH2gu-56">
          <mxGeometry relative="1" as="geometry" />
        </mxCell>
        <mxCell id="2YxlZd93tx3mGEonH2gu-43" value="&lt;br&gt;&lt;span style=&quot;color: rgb(0, 0, 0); font-family: Helvetica; font-size: 12px; font-style: normal; font-variant-ligatures: normal; font-variant-caps: normal; font-weight: 400; letter-spacing: normal; orphans: 2; text-align: center; text-indent: 0px; text-transform: none; widows: 2; word-spacing: 0px; -webkit-text-stroke-width: 0px; white-space: normal; background-color: rgb(251, 251, 251); text-decoration-thickness: initial; text-decoration-style: initial; text-decoration-color: initial; display: inline !important; float: none;&quot;&gt;휴먼 검색 요청 창&lt;/span&gt;&lt;br&gt;열림" style="strokeWidth=1;html=1;shape=mxgraph.flowchart.terminator;whiteSpace=wrap;shadow=0;strokeColor=default;align=center;verticalAlign=middle;spacingTop=-4;spacing=6;fontFamily=Helvetica;fontSize=12;fontColor=default;fillColor=default;" vertex="1" parent="WIyWlLk6GJQsqaUBKTNV-1">
          <mxGeometry x="1301" y="70" width="120" height="50" as="geometry" />
        </mxCell>
        <mxCell id="2YxlZd93tx3mGEonH2gu-45" value="1Week 버튼클릭" style="rounded=1;whiteSpace=wrap;html=1;shadow=0;strokeColor=default;strokeWidth=1;align=center;verticalAlign=middle;spacingTop=-4;spacing=6;fontFamily=Helvetica;fontSize=12;fontColor=default;fillColor=default;" vertex="1" parent="WIyWlLk6GJQsqaUBKTNV-1">
          <mxGeometry x="1158" y="180" width="120" height="40" as="geometry" />
        </mxCell>
        <mxCell id="2YxlZd93tx3mGEonH2gu-46" value="시작시간 클릭" style="rounded=1;whiteSpace=wrap;html=1;shadow=0;strokeColor=default;strokeWidth=1;align=center;verticalAlign=middle;spacingTop=-4;spacing=6;fontFamily=Helvetica;fontSize=12;fontColor=default;fillColor=default;" vertex="1" parent="WIyWlLk6GJQsqaUBKTNV-1">
          <mxGeometry x="1301" y="180" width="120" height="40" as="geometry" />
        </mxCell>
        <mxCell id="2YxlZd93tx3mGEonH2gu-47" value="1Day 버튼클릭" style="rounded=1;whiteSpace=wrap;html=1;shadow=0;strokeColor=default;strokeWidth=1;align=center;verticalAlign=middle;spacingTop=-4;spacing=6;fontFamily=Helvetica;fontSize=12;fontColor=default;fillColor=default;" vertex="1" parent="WIyWlLk6GJQsqaUBKTNV-1">
          <mxGeometry x="1016" y="180" width="120" height="40" as="geometry" />
        </mxCell>
        <mxCell id="2YxlZd93tx3mGEonH2gu-50" value="종료시간 클릭" style="rounded=1;whiteSpace=wrap;html=1;shadow=0;strokeColor=default;strokeWidth=1;align=center;verticalAlign=middle;spacingTop=-4;spacing=6;fontFamily=Helvetica;fontSize=12;fontColor=default;fillColor=default;" vertex="1" parent="WIyWlLk6GJQsqaUBKTNV-1">
          <mxGeometry x="1440" y="180" width="120" height="40" as="geometry" />
        </mxCell>
        <mxCell id="2YxlZd93tx3mGEonH2gu-51" value="1Hour 버튼클릭" style="rounded=1;whiteSpace=wrap;html=1;shadow=0;strokeColor=default;strokeWidth=1;align=center;verticalAlign=middle;spacingTop=-4;spacing=6;fontFamily=Helvetica;fontSize=12;fontColor=default;fillColor=default;" vertex="1" parent="WIyWlLk6GJQsqaUBKTNV-1">
          <mxGeometry x="870" y="180" width="120" height="40" as="geometry" />
        </mxCell>
        <mxCell id="2YxlZd93tx3mGEonH2gu-53" value="" style="rounded=0;whiteSpace=wrap;html=1;shadow=0;strokeColor=default;strokeWidth=1;align=center;verticalAlign=middle;spacingTop=-4;spacing=6;fontFamily=Helvetica;fontSize=12;fontColor=default;fillColor=default;" vertex="1" parent="WIyWlLk6GJQsqaUBKTNV-1">
          <mxGeometry x="90" y="140" width="120" height="40" as="geometry" />
        </mxCell>
        <mxCell id="2YxlZd93tx3mGEonH2gu-54" value="" style="rounded=0;whiteSpace=wrap;html=1;shadow=0;strokeColor=default;strokeWidth=1;align=center;verticalAlign=middle;spacingTop=-4;spacing=6;fontFamily=Helvetica;fontSize=12;fontColor=default;fillColor=default;" vertex="1" parent="WIyWlLk6GJQsqaUBKTNV-1">
          <mxGeometry x="930" y="20" width="120" height="40" as="geometry" />
        </mxCell>
        <mxCell id="2YxlZd93tx3mGEonH2gu-55" value="" style="rounded=0;whiteSpace=wrap;html=1;shadow=0;strokeColor=default;strokeWidth=1;align=center;verticalAlign=middle;spacingTop=-4;spacing=6;fontFamily=Helvetica;fontSize=12;fontColor=default;fillColor=default;" vertex="1" parent="WIyWlLk6GJQsqaUBKTNV-1">
          <mxGeometry x="1670" y="180" width="120" height="40" as="geometry" />
        </mxCell>
        <mxCell id="2YxlZd93tx3mGEonH2gu-56" value="" style="rounded=0;whiteSpace=wrap;html=1;shadow=0;strokeColor=default;strokeWidth=1;align=center;verticalAlign=middle;spacingTop=-4;spacing=6;fontFamily=Helvetica;fontSize=12;fontColor=default;fillColor=default;" vertex="1" parent="WIyWlLk6GJQsqaUBKTNV-1">
          <mxGeometry x="1820" y="180" width="120" height="40" as="geometry" />
        </mxCell>
        <mxCell id="2YxlZd93tx3mGEonH2gu-64" style="edgeStyle=orthogonalEdgeStyle;rounded=0;orthogonalLoop=1;jettySize=auto;html=1;entryX=0.5;entryY=0;entryDx=0;entryDy=0;fontFamily=Helvetica;fontSize=12;fontColor=default;exitX=0.5;exitY=1;exitDx=0;exitDy=0;" edge="1" parent="WIyWlLk6GJQsqaUBKTNV-1" source="2YxlZd93tx3mGEonH2gu-70" target="2YxlZd93tx3mGEonH2gu-66">
          <mxGeometry relative="1" as="geometry">
            <mxPoint x="1440.030303030303" y="350" as="sourcePoint" />
            <mxPoint x="1440" y="390" as="targetPoint" />
          </mxGeometry>
        </mxCell>
        <mxCell id="2YxlZd93tx3mGEonH2gu-58" style="edgeStyle=orthogonalEdgeStyle;rounded=0;orthogonalLoop=1;jettySize=auto;html=1;entryX=0.5;entryY=0;entryDx=0;entryDy=0;fontFamily=Helvetica;fontSize=12;fontColor=default;" edge="1" parent="WIyWlLk6GJQsqaUBKTNV-1" source="2YxlZd93tx3mGEonH2gu-46" target="2YxlZd93tx3mGEonH2gu-70">
          <mxGeometry relative="1" as="geometry">
            <mxPoint x="1440" y="300" as="targetPoint" />
          </mxGeometry>
        </mxCell>
        <mxCell id="2YxlZd93tx3mGEonH2gu-59" style="edgeStyle=orthogonalEdgeStyle;rounded=0;orthogonalLoop=1;jettySize=auto;html=1;entryX=0.5;entryY=0;entryDx=0;entryDy=0;fontFamily=Helvetica;fontSize=12;fontColor=default;" edge="1" parent="WIyWlLk6GJQsqaUBKTNV-1" source="2YxlZd93tx3mGEonH2gu-50" target="2YxlZd93tx3mGEonH2gu-70">
          <mxGeometry relative="1" as="geometry">
            <mxPoint x="1440" y="300" as="targetPoint" />
          </mxGeometry>
        </mxCell>
        <mxCell id="2YxlZd93tx3mGEonH2gu-82" style="edgeStyle=orthogonalEdgeStyle;rounded=0;orthogonalLoop=1;jettySize=auto;html=1;entryX=0.5;entryY=0;entryDx=0;entryDy=0;fontFamily=Helvetica;fontSize=12;fontColor=default;exitX=0.575;exitY=0.975;exitDx=0;exitDy=0;exitPerimeter=0;" edge="1" parent="WIyWlLk6GJQsqaUBKTNV-1" source="2YxlZd93tx3mGEonH2gu-66" target="2YxlZd93tx3mGEonH2gu-72">
          <mxGeometry relative="1" as="geometry" />
        </mxCell>
        <mxCell id="2YxlZd93tx3mGEonH2gu-66" value="x버튼 클릭" style="rounded=1;whiteSpace=wrap;html=1;shadow=0;strokeColor=default;strokeWidth=1;align=center;verticalAlign=middle;spacingTop=-4;spacing=6;fontFamily=Helvetica;fontSize=12;fontColor=default;fillColor=default;" vertex="1" parent="WIyWlLk6GJQsqaUBKTNV-1">
          <mxGeometry x="1520" y="465" width="120" height="40" as="geometry" />
        </mxCell>
        <mxCell id="2YxlZd93tx3mGEonH2gu-68" value="시간 선택&amp;nbsp;&lt;span style=&quot;color: rgba(0, 0, 0, 0); font-family: monospace; font-size: 0px; text-align: start; text-wrap: nowrap;&quot;&gt;%3CmxGraphModel%3E%3Croot%3E%3CmxCell%20id%3D%220%22%2F%3E%3CmxCell%20id%3D%221%22%20parent%3D%220%22%2F%3E%3CmxCell%20id%3D%222%22%20value%3D%22%22%20style%3D%22rounded%3D0%3BwhiteSpace%3Dwrap%3Bhtml%3D1%3Bshadow%3D0%3BstrokeColor%3Ddefault%3BstrokeWidth%3D1%3Balign%3Dcenter%3BverticalAlign%3Dmiddle%3BspacingTop%3D-4%3Bspacing%3D6%3BfontFamily%3DHelvetica%3BfontSize%3D12%3BfontColor%3Ddefault%3BfillColor%3Ddefault%3B%22%20vertex%3D%221%22%20parent%3D%221%22%3E%3CmxGeometry%20x%3D%22930%22%20y%3D%2220%22%20width%3D%22120%22%20height%3D%2240%22%20as%3D%22geometry%22%2F%3E%3C%2FmxCell%3E%3C%2Froot%3E%3C%2FmxGraphModel%3E&lt;/span&gt;창 닫힘" style="rounded=0;whiteSpace=wrap;html=1;shadow=0;strokeColor=default;strokeWidth=1;align=center;verticalAlign=middle;spacingTop=-4;spacing=6;fontFamily=Helvetica;fontSize=12;fontColor=default;fillColor=default;" vertex="1" parent="WIyWlLk6GJQsqaUBKTNV-1">
          <mxGeometry x="1990" y="280" width="120" height="40" as="geometry" />
        </mxCell>
        <mxCell id="2YxlZd93tx3mGEonH2gu-77" style="edgeStyle=orthogonalEdgeStyle;rounded=0;orthogonalLoop=1;jettySize=auto;html=1;fontFamily=Helvetica;fontSize=12;fontColor=default;exitX=0.5;exitY=1;exitDx=0;exitDy=0;" edge="1" parent="WIyWlLk6GJQsqaUBKTNV-1" source="2YxlZd93tx3mGEonH2gu-70" target="2YxlZd93tx3mGEonH2gu-74">
          <mxGeometry relative="1" as="geometry" />
        </mxCell>
        <mxCell id="2YxlZd93tx3mGEonH2gu-79" style="edgeStyle=orthogonalEdgeStyle;rounded=0;orthogonalLoop=1;jettySize=auto;html=1;fontFamily=Helvetica;fontSize=12;fontColor=default;" edge="1" parent="WIyWlLk6GJQsqaUBKTNV-1" source="2YxlZd93tx3mGEonH2gu-70" target="2YxlZd93tx3mGEonH2gu-75">
          <mxGeometry relative="1" as="geometry" />
        </mxCell>
        <mxCell id="2YxlZd93tx3mGEonH2gu-70" value="시간 선택 창 열림" style="rounded=0;whiteSpace=wrap;html=1;shadow=0;strokeColor=default;strokeWidth=1;align=center;verticalAlign=middle;spacingTop=-4;spacing=6;fontFamily=Helvetica;fontSize=12;fontColor=default;fillColor=default;" vertex="1" parent="WIyWlLk6GJQsqaUBKTNV-1">
          <mxGeometry x="1370" y="300" width="120" height="40" as="geometry" />
        </mxCell>
        <mxCell id="2YxlZd93tx3mGEonH2gu-73" style="edgeStyle=orthogonalEdgeStyle;rounded=0;orthogonalLoop=1;jettySize=auto;html=1;entryX=0.5;entryY=0;entryDx=0;entryDy=0;fontFamily=Helvetica;fontSize=12;fontColor=default;exitX=0.5;exitY=1;exitDx=0;exitDy=0;" edge="1" parent="WIyWlLk6GJQsqaUBKTNV-1" source="2YxlZd93tx3mGEonH2gu-71" target="2YxlZd93tx3mGEonH2gu-72">
          <mxGeometry relative="1" as="geometry" />
        </mxCell>
        <mxCell id="2YxlZd93tx3mGEonH2gu-71" value="년,월,일,시,분 표시" style="rounded=0;whiteSpace=wrap;html=1;shadow=0;strokeColor=default;strokeWidth=1;align=center;verticalAlign=middle;spacingTop=-4;spacing=6;fontFamily=Helvetica;fontSize=12;fontColor=default;fillColor=default;" vertex="1" parent="WIyWlLk6GJQsqaUBKTNV-1">
          <mxGeometry x="1230" y="540" width="120" height="40" as="geometry" />
        </mxCell>
        <mxCell id="2YxlZd93tx3mGEonH2gu-72" value="시간 선택 창 닫힘" style="rounded=0;whiteSpace=wrap;html=1;shadow=0;strokeColor=default;strokeWidth=1;align=center;verticalAlign=middle;spacingTop=-4;spacing=6;fontFamily=Helvetica;fontSize=12;fontColor=default;fillColor=default;" vertex="1" parent="WIyWlLk6GJQsqaUBKTNV-1">
          <mxGeometry x="1380" y="670" width="120" height="40" as="geometry" />
        </mxCell>
        <mxCell id="2YxlZd93tx3mGEonH2gu-78" style="edgeStyle=orthogonalEdgeStyle;rounded=0;orthogonalLoop=1;jettySize=auto;html=1;entryX=0.5;entryY=0;entryDx=0;entryDy=0;fontFamily=Helvetica;fontSize=12;fontColor=default;" edge="1" parent="WIyWlLk6GJQsqaUBKTNV-1" source="2YxlZd93tx3mGEonH2gu-74" target="2YxlZd93tx3mGEonH2gu-71">
          <mxGeometry relative="1" as="geometry" />
        </mxCell>
        <mxCell id="2YxlZd93tx3mGEonH2gu-74" value="Done 버튼 클릭&lt;span style=&quot;color: rgba(0, 0, 0, 0); font-family: monospace; font-size: 0px; text-align: start; text-wrap: nowrap;&quot;&gt;%3CmxGraphModel%3E%3Croot%3E%3CmxCell%20id%3D%220%22%2F%3E%3CmxCell%20id%3D%221%22%20parent%3D%220%22%2F%3E%3CmxCell%20id%3D%222%22%20value%3D%22x%EB%B2%84%ED%8A%BC%20%ED%81%B4%EB%A6%AD%22%20style%3D%22rounded%3D1%3BwhiteSpace%3Dwrap%3Bhtml%3D1%3Bshadow%3D0%3BstrokeColor%3Ddefault%3BstrokeWidth%3D1%3Balign%3Dcenter%3BverticalAlign%3Dmiddle%3BspacingTop%3D-4%3Bspacing%3D6%3BfontFamily%3DHelvetica%3BfontSize%3D12%3BfontColor%3Ddefault%3BfillColor%3Ddefault%3B%22%20vertex%3D%221%22%20parent%3D%221%22%3E%3CmxGeometry%20x%3D%221480%22%20y%3D%22380%22%20width%3D%22120%22%20height%3D%2240%22%20as%3D%22geometry%22%2F%3E%3C%2FmxCell%3E%3C%2Froot%3E%3C%2FmxGraphModel%3E&lt;/span&gt;" style="rounded=1;whiteSpace=wrap;html=1;shadow=0;strokeColor=default;strokeWidth=1;align=center;verticalAlign=middle;spacingTop=-4;spacing=6;fontFamily=Helvetica;fontSize=12;fontColor=default;fillColor=default;" vertex="1" parent="WIyWlLk6GJQsqaUBKTNV-1">
          <mxGeometry x="1230" y="465" width="120" height="40" as="geometry" />
        </mxCell>
        <mxCell id="2YxlZd93tx3mGEonH2gu-80" style="edgeStyle=orthogonalEdgeStyle;rounded=0;orthogonalLoop=1;jettySize=auto;html=1;entryX=0.5;entryY=0;entryDx=0;entryDy=0;fontFamily=Helvetica;fontSize=12;fontColor=default;" edge="1" parent="WIyWlLk6GJQsqaUBKTNV-1" source="2YxlZd93tx3mGEonH2gu-75" target="2YxlZd93tx3mGEonH2gu-76">
          <mxGeometry relative="1" as="geometry" />
        </mxCell>
        <mxCell id="2YxlZd93tx3mGEonH2gu-75" value="Cancel 버튼 클릭&lt;span style=&quot;color: rgba(0, 0, 0, 0); font-family: monospace; font-size: 0px; text-align: start; text-wrap: nowrap;&quot;&gt;%3CmxGraphModel%3E%3Croot%3E%3CmxCell%20id%3D%220%22%2F%3E%3CmxCell%20id%3D%221%22%20parent%3D%220%22%2F%3E%3CmxCell%20id%3D%222%22%20value%3D%22x%EB%B2%84%ED%8A%BC%20%ED%81%B4%EB%A6%AD%22%20style%3D%22rounded%3D1%3BwhiteSpace%3Dwrap%3Bhtml%3D1%3Bshadow%3D0%3BstrokeColor%3Ddefault%3BstrokeWidth%3D1%3Balign%3Dcenter%3BverticalAlign%3Dmiddle%3BspacingTop%3D-4%3Bspacing%3D6%3BfontFamily%3DHelvetica%3BfontSize%3D12%3BfontColor%3Ddefault%3BfillColor%3Ddefault%3B%22%20vertex%3D%221%22%20parent%3D%221%22%3E%3CmxGeometry%20x%3D%221480%22%20y%3D%22380%22%20width%3D%22120%22%20height%3D%2240%22%20as%3D%22geometry%22%2F%3E%3C%2FmxCell%3E%3C%2Froot%3E%3C%2FmxGraphModel%3E&lt;/span&gt;" style="rounded=1;whiteSpace=wrap;html=1;shadow=0;strokeColor=default;strokeWidth=1;align=center;verticalAlign=middle;spacingTop=-4;spacing=6;fontFamily=Helvetica;fontSize=12;fontColor=default;fillColor=default;" vertex="1" parent="WIyWlLk6GJQsqaUBKTNV-1">
          <mxGeometry x="1370" y="465" width="120" height="40" as="geometry" />
        </mxCell>
        <mxCell id="2YxlZd93tx3mGEonH2gu-76" value="변경 전&amp;nbsp;&lt;div&gt;년,월,일,시,분 표시&lt;/div&gt;" style="rounded=0;whiteSpace=wrap;html=1;shadow=0;strokeColor=default;strokeWidth=1;align=center;verticalAlign=middle;spacingTop=-4;spacing=6;fontFamily=Helvetica;fontSize=12;fontColor=default;fillColor=default;" vertex="1" parent="WIyWlLk6GJQsqaUBKTNV-1">
          <mxGeometry x="1370" y="540" width="120" height="40" as="geometry" />
        </mxCell>
      </root>
    </mxGraphModel>
  </diagram>
</mxfile>
